<svg width="1665" height="599" viewBox="0 0 1665 599" fill="none" xmlns="http://www.w3.org/2000/svg">
<g clip-path="url(#clip0_1170_1873)" filter="url(#filter0_d_1170_1873)">
<path d="M765.7 426.07C748.863 426.07 733.747 422.077 720.358 414.094C706.976 405.888 696.392 394.799 688.62 380.828C680.847 366.856 676.851 351.11 676.636 333.59V181.896C676.636 176.795 678.149 172.692 681.168 169.588C684.409 166.483 688.405 164.93 693.152 164.93C698.119 164.93 702.116 166.483 705.142 169.588C708.161 172.692 709.674 176.795 709.674 181.896V271.715C717.232 262.4 726.296 255.082 736.88 249.759C747.671 244.215 759.44 241.443 772.18 241.443C787.939 241.443 802.084 245.545 814.61 253.751C827.128 261.735 836.956 272.712 844.078 286.685C851.422 300.434 855.091 316.069 855.091 333.59C855.091 351.11 851.094 366.856 843.108 380.828C835.336 394.799 824.751 405.888 811.369 414.094C797.98 422.077 782.757 426.07 765.7 426.07ZM765.7 396.13C776.712 396.13 786.54 393.469 795.175 388.146C803.811 382.602 810.613 375.061 815.58 365.525C820.762 355.989 823.352 345.344 823.352 333.59C823.352 321.614 820.762 310.969 815.58 301.654C810.613 292.34 803.811 285.021 795.175 279.698C786.54 274.154 776.712 271.382 765.7 271.382C754.908 271.382 745.081 274.154 736.231 279.698C727.595 285.021 720.793 292.34 715.826 301.654C710.859 310.969 708.375 321.614 708.375 333.59C708.375 345.344 710.859 355.989 715.826 365.525C720.793 375.061 727.595 382.602 736.231 388.146C745.081 393.469 754.908 396.13 765.7 396.13Z" fill="white"/>
<path d="M971.937 426.07C954.444 426.07 939.007 422.025 925.617 413.935C912.236 405.614 901.651 394.289 893.879 379.958C886.321 365.397 882.545 348.756 882.545 330.034C882.545 311.08 886.321 294.439 893.879 280.109C901.651 265.547 912.236 254.222 925.617 246.132C939.007 237.811 954.444 233.651 971.937 233.651C989.209 233.651 1004.54 237.811 1017.92 246.132C1031.31 254.222 1041.78 265.547 1049.34 280.109C1057.11 294.439 1061 311.08 1061 330.034C1061 348.756 1057.22 365.397 1049.66 379.958C1042.11 394.289 1031.63 405.614 1018.25 413.935C1004.86 422.025 989.423 426.07 971.937 426.07ZM971.937 394.867C983.163 394.867 993.091 392.093 1001.73 386.546C1010.37 380.999 1017.06 373.371 1021.81 363.663C1026.78 353.956 1029.26 342.746 1029.26 330.034C1029.26 317.321 1026.78 306.111 1021.81 296.404C1017.06 286.465 1010.37 278.722 1001.73 273.175C993.091 267.627 983.163 264.854 971.937 264.854C960.703 264.854 950.776 267.627 942.14 273.175C933.504 278.722 926.702 286.465 921.735 296.404C916.768 306.111 914.284 317.321 914.284 330.034C914.284 342.746 916.768 353.956 921.735 363.663C926.702 373.371 933.504 380.999 942.14 386.546C950.776 392.093 960.703 394.867 971.937 394.867Z" fill="white"/>
<path d="M1236.81 426.07C1232.09 426.07 1228.14 424.446 1224.93 421.198C1221.93 417.719 1220.43 413.428 1220.43 408.324V322.728C1220.43 309.506 1218.18 298.719 1213.69 290.368C1209.19 282.017 1203.09 275.87 1195.38 271.926C1187.89 267.751 1179.22 265.664 1169.37 265.664C1160.38 265.664 1152.25 267.635 1144.97 271.578C1137.69 275.522 1131.91 280.857 1127.63 287.584C1123.35 294.08 1121.21 301.619 1121.21 310.201H1100.98C1100.98 295.587 1104.18 282.597 1110.61 271.231C1117.25 259.632 1126.23 250.469 1137.58 243.742C1148.93 237.015 1161.67 233.651 1175.8 233.651C1190.56 233.651 1203.73 237.131 1215.3 244.09C1227.06 250.818 1236.27 260.792 1242.91 274.014C1249.76 287.236 1253.18 303.474 1253.18 322.728V408.324C1253.18 413.428 1251.58 417.719 1248.37 421.198C1245.37 424.446 1241.51 426.07 1236.81 426.07ZM1104.83 426.07C1100.12 426.07 1096.16 424.446 1092.95 421.198C1089.95 417.719 1088.45 413.428 1088.45 408.324V253.137C1088.45 247.802 1089.95 243.51 1092.95 240.262C1096.16 237.015 1100.12 235.391 1104.83 235.391C1109.75 235.391 1113.72 237.015 1116.71 240.262C1119.71 243.51 1121.21 247.802 1121.21 253.137V408.324C1121.21 413.428 1119.71 417.719 1116.71 421.198C1113.72 424.446 1109.75 426.07 1104.83 426.07Z" fill="white"/>
<path d="M1358.02 426.07C1343.25 426.07 1329.98 422.706 1318.21 415.979C1306.65 409.02 1297.44 398.93 1290.59 385.707C1283.96 372.485 1280.64 356.247 1280.64 336.993V251.397C1280.64 246.294 1282.14 242.118 1285.13 238.87C1288.34 235.391 1292.3 233.651 1297.01 233.651C1301.72 233.651 1305.58 235.391 1308.57 238.87C1311.78 242.118 1313.39 246.294 1313.39 251.397V336.993C1313.39 349.984 1315.63 360.77 1320.13 369.354C1324.63 377.704 1330.73 383.967 1338.43 388.143C1346.14 392.086 1354.81 394.058 1364.44 394.058C1373.65 394.058 1381.79 392.086 1388.85 388.143C1396.12 384.2 1401.9 378.864 1406.18 372.137C1410.47 365.41 1412.61 357.871 1412.61 349.52H1432.84C1432.84 363.902 1429.52 376.893 1422.88 388.491C1416.46 400.089 1407.58 409.252 1396.24 415.979C1385.1 422.706 1372.36 426.07 1358.02 426.07ZM1428.98 424.33C1424.28 424.33 1420.31 422.706 1417.1 419.458C1414.11 415.979 1412.61 411.687 1412.61 406.584V251.397C1412.61 246.062 1414.11 241.77 1417.1 238.523C1420.31 235.275 1424.28 233.651 1428.98 233.651C1433.91 233.651 1437.87 235.275 1440.86 238.523C1443.86 241.77 1445.36 246.062 1445.36 251.397V406.584C1445.36 411.687 1443.86 415.979 1440.86 419.458C1437.87 422.706 1433.91 424.33 1428.98 424.33Z" fill="white"/>
<path d="M1502.34 419.386L1479.26 398.28L1594.64 240.335L1617.37 261.441L1502.34 419.386ZM1492.16 426.07C1481.52 426.07 1476.21 420.559 1476.21 409.537C1476.21 398.514 1481.52 393.003 1492.16 393.003H1607.87C1618.5 393.003 1623.82 398.514 1623.82 409.537C1623.82 420.559 1618.5 426.07 1607.87 426.07H1492.16ZM1488.76 266.718C1478.13 266.718 1472.82 261.207 1472.82 250.185C1472.82 239.162 1478.13 233.651 1488.76 233.651H1604.48C1615.11 233.651 1620.42 239.162 1620.42 250.185C1620.42 261.207 1615.11 266.718 1604.48 266.718H1488.76Z" fill="white"/>
<path fill-rule="evenodd" clip-rule="evenodd" d="M4 147.723L263.473 0L522.925 147.723V443.168L263.473 590.89L4 443.168V147.723ZM263.473 553.96L490.489 424.693V166.178L263.473 36.9307L36.4366 166.178V424.693L263.473 553.96ZM266.399 284.355C258.997 271.107 248.127 260.06 234.921 252.367C221.445 244.546 206.056 240.508 190.42 240.688C177.022 240.534 163.782 243.553 151.812 249.492C140.332 255.14 130.394 263.421 122.831 273.64V179.905C122.893 178.249 122.607 176.598 121.993 175.055C121.378 173.513 120.447 172.111 119.259 170.94C118.071 169.768 116.65 168.85 115.086 168.244C113.521 167.638 111.848 167.356 110.168 167.417C108.518 167.356 106.874 167.639 105.343 168.246C103.811 168.853 102.427 169.772 101.28 170.943C100.137 172.139 99.2469 173.547 98.6607 175.086C98.074 176.624 97.8038 178.262 97.8646 179.905V251.56C97.6117 252.497 97.5038 253.467 97.5451 254.436V329.637C97.3473 345.543 101.434 361.217 109.389 375.056C117.034 388.487 128.249 399.607 141.825 407.22C155.814 415.07 171.671 419.102 187.764 418.9C203.857 419.103 219.714 415.071 233.703 407.22C247.247 399.594 258.437 388.484 266.079 375.076C274.025 361.233 278.111 345.562 277.923 329.656C278.129 313.826 274.158 298.214 266.399 284.355ZM244.987 363.711C239.429 373.668 231.244 381.957 221.299 387.701H221.339C213.805 392.014 205.481 394.816 196.845 395.943C188.209 397.072 179.432 396.505 171.019 394.275C162.606 392.045 154.723 388.197 147.825 382.952C140.925 377.707 135.147 371.168 130.82 363.711C125.007 353.279 122.04 341.538 122.212 329.637C122.17 326.967 122.283 324.297 122.551 321.64C122.772 321.129 122.881 320.579 122.871 320.025C124.586 304.256 132.155 289.67 144.122 279.076C156.061 268.438 171.678 262.715 187.764 263.083C199.534 262.969 211.118 265.983 221.299 271.808C231.249 277.441 239.443 285.657 244.987 295.562C250.619 306.061 253.563 317.759 253.563 329.637C253.563 341.514 250.619 353.212 244.987 363.711ZM429.427 406.098C429.427 413.57 425.645 417.305 418.082 417.305H297.603C290.04 417.305 286.259 413.57 286.259 406.098C286.025 403.253 286.825 400.419 288.515 398.101L394.953 264.679H296.385C288.808 264.679 285.027 260.95 285.04 253.491C285.054 246.033 288.835 242.297 296.385 242.284H416.764C424.327 242.284 428.109 246.019 428.109 253.491C428.25 256.475 427.331 259.414 425.511 261.803L320.073 394.911H418.062C425.638 394.911 429.427 398.64 429.427 406.098Z" fill="url(#paint0_linear_1170_1873)"/>
</g>
<defs>
<filter id="filter0_d_1170_1873" x="0" y="0" width="1627.82" height="599" filterUnits="userSpaceOnUse" color-interpolation-filters="sRGB">
<feFlood flood-opacity="0" result="BackgroundImageFix"/>
<feColorMatrix in="SourceAlpha" type="matrix" values="0 0 0 0 0 0 0 0 0 0 0 0 0 0 0 0 0 0 127 0" result="hardAlpha"/>
<feOffset dy="4"/>
<feGaussianBlur stdDeviation="2"/>
<feComposite in2="hardAlpha" operator="out"/>
<feColorMatrix type="matrix" values="0 0 0 0 0 0 0 0 0 0 0 0 0 0 0 0 0 0 0.25 0"/>
<feBlend mode="normal" in2="BackgroundImageFix" result="effect1_dropShadow_1170_1873"/>
<feBlend mode="normal" in="SourceGraphic" in2="effect1_dropShadow_1170_1873" result="shape"/>
</filter>
<linearGradient id="paint0_linear_1170_1873" x1="542.441" y1="291.235" x2="0.38633" y2="283.796" gradientUnits="userSpaceOnUse">
<stop stop-color="#CE09FF"/>
<stop offset="1" stop-color="#FFA34E"/>
</linearGradient>
<clipPath id="clip0_1170_1873">
<rect width="1619.82" height="591" fill="white" transform="translate(4)"/>
</clipPath>
</defs>
</svg>
