<svg width="1661" height="591" viewBox="0 0 1661 591" fill="none" xmlns="http://www.w3.org/2000/svg">
<g clip-path="url(#clip0_3159_14752)">
<path d="M761.7 426.07C744.863 426.07 729.747 422.077 716.358 414.094C702.976 405.888 692.392 394.799 684.62 380.828C676.847 366.855 672.851 351.11 672.636 333.59V181.896C672.636 176.795 674.149 172.692 677.168 169.588C680.409 166.483 684.405 164.93 689.152 164.93C694.119 164.93 698.116 166.483 701.142 169.588C704.161 172.692 705.674 176.795 705.674 181.896V271.715C713.232 262.4 722.296 255.082 732.88 249.759C743.671 244.215 755.44 241.443 768.18 241.443C783.939 241.443 798.084 245.545 810.61 253.751C823.128 261.735 832.956 272.712 840.078 286.685C847.422 300.434 851.091 316.069 851.091 333.59C851.091 351.11 847.094 366.855 839.108 380.828C831.336 394.799 820.751 405.888 807.369 414.094C793.98 422.077 778.757 426.07 761.7 426.07ZM761.7 396.13C772.712 396.13 782.54 393.468 791.175 388.146C799.811 382.602 806.613 375.061 811.58 365.525C816.762 355.989 819.352 345.344 819.352 333.59C819.352 321.613 816.762 310.969 811.58 301.654C806.613 292.34 799.811 285.021 791.175 279.698C782.54 274.154 772.712 271.382 761.7 271.382C750.908 271.382 741.081 274.154 732.231 279.698C723.595 285.021 716.793 292.34 711.826 301.654C706.859 310.969 704.375 321.613 704.375 333.59C704.375 345.344 706.859 355.989 711.826 365.525C716.793 375.061 723.595 382.602 732.231 388.146C741.081 393.468 750.908 396.13 761.7 396.13Z" fill="#0E0E0E"/>
<path d="M967.937 426.07C950.444 426.07 935.007 422.025 921.617 413.935C908.236 405.614 897.651 394.289 889.879 379.958C882.321 365.397 878.545 348.756 878.545 330.034C878.545 311.08 882.321 294.439 889.879 280.109C897.651 265.547 908.236 254.222 921.617 246.132C935.007 237.811 950.444 233.651 967.937 233.651C985.209 233.651 1000.54 237.811 1013.92 246.132C1027.31 254.222 1037.78 265.547 1045.34 280.109C1053.11 294.439 1057 311.08 1057 330.034C1057 348.756 1053.22 365.397 1045.66 379.958C1038.11 394.289 1027.63 405.614 1014.25 413.935C1000.86 422.025 985.423 426.07 967.937 426.07ZM967.937 394.867C979.163 394.867 989.091 392.093 997.727 386.546C1006.37 380.999 1013.06 373.371 1017.81 363.663C1022.78 353.956 1025.26 342.746 1025.26 330.034C1025.26 317.321 1022.78 306.111 1017.81 296.404C1013.06 286.465 1006.37 278.722 997.727 273.174C989.091 267.627 979.163 264.853 967.937 264.853C956.703 264.853 946.776 267.627 938.14 273.174C929.504 278.722 922.702 286.465 917.735 296.404C912.768 306.111 910.284 317.321 910.284 330.034C910.284 342.746 912.768 353.956 917.735 363.663C922.702 373.371 929.504 380.999 938.14 386.546C946.776 392.093 956.703 394.867 967.937 394.867Z" fill="#0E0E0E"/>
<path d="M1232.81 426.07C1228.09 426.07 1224.14 424.446 1220.93 421.198C1217.93 417.719 1216.43 413.428 1216.43 408.324V322.727C1216.43 309.506 1214.18 298.719 1209.69 290.368C1205.19 282.017 1199.09 275.87 1191.38 271.926C1183.89 267.751 1175.22 265.663 1165.37 265.663C1156.38 265.663 1148.25 267.635 1140.97 271.578C1133.69 275.522 1127.91 280.857 1123.63 287.584C1119.35 294.08 1117.21 301.619 1117.21 310.201H1096.98C1096.98 295.587 1100.18 282.597 1106.61 271.231C1113.25 259.632 1122.23 250.469 1133.58 243.742C1144.93 237.015 1157.67 233.651 1171.8 233.651C1186.56 233.651 1199.73 237.131 1211.3 244.09C1223.06 250.818 1232.27 260.792 1238.91 274.014C1245.76 287.236 1249.18 303.474 1249.18 322.727V408.324C1249.18 413.428 1247.58 417.719 1244.37 421.198C1241.37 424.446 1237.51 426.07 1232.81 426.07ZM1100.83 426.07C1096.12 426.07 1092.16 424.446 1088.95 421.198C1085.95 417.719 1084.45 413.428 1084.45 408.324V253.137C1084.45 247.801 1085.95 243.51 1088.95 240.262C1092.16 237.015 1096.12 235.391 1100.83 235.391C1105.75 235.391 1109.72 237.015 1112.71 240.262C1115.71 243.51 1117.21 247.801 1117.21 253.137V408.324C1117.21 413.428 1115.71 417.719 1112.71 421.198C1109.72 424.446 1105.75 426.07 1100.83 426.07Z" fill="#0E0E0E"/>
<path d="M1354.02 426.07C1339.25 426.07 1325.98 422.706 1314.21 415.979C1302.65 409.02 1293.44 398.93 1286.59 385.707C1279.96 372.484 1276.64 356.247 1276.64 336.993V251.397C1276.64 246.294 1278.14 242.118 1281.13 238.87C1284.34 235.391 1288.3 233.651 1293.01 233.651C1297.72 233.651 1301.58 235.391 1304.57 238.87C1307.78 242.118 1309.39 246.294 1309.39 251.397V336.993C1309.39 349.984 1311.63 360.77 1316.13 369.354C1320.63 377.704 1326.73 383.967 1334.43 388.142C1342.14 392.086 1350.81 394.058 1360.44 394.058C1369.65 394.058 1377.79 392.086 1384.85 388.142C1392.12 384.199 1397.9 378.864 1402.18 372.137C1406.47 365.41 1408.61 357.871 1408.61 349.52H1428.84C1428.84 363.902 1425.52 376.893 1418.88 388.491C1412.46 400.089 1403.58 409.252 1392.24 415.979C1381.1 422.706 1368.36 426.07 1354.02 426.07ZM1424.98 424.33C1420.28 424.33 1416.31 422.706 1413.1 419.458C1410.11 415.979 1408.61 411.687 1408.61 406.584V251.397C1408.61 246.062 1410.11 241.77 1413.1 238.523C1416.31 235.275 1420.28 233.651 1424.98 233.651C1429.91 233.651 1433.87 235.275 1436.86 238.523C1439.86 241.77 1441.36 246.062 1441.36 251.397V406.584C1441.36 411.687 1439.86 415.979 1436.86 419.458C1433.87 422.706 1429.91 424.33 1424.98 424.33Z" fill="#0E0E0E"/>
<path d="M1498.34 419.386L1475.26 398.28L1590.64 240.335L1613.37 261.441L1498.34 419.386ZM1488.16 426.07C1477.52 426.07 1472.21 420.559 1472.21 409.537C1472.21 398.514 1477.52 393.003 1488.16 393.003H1603.87C1614.5 393.003 1619.82 398.514 1619.82 409.537C1619.82 420.559 1614.5 426.07 1603.87 426.07H1488.16ZM1484.76 266.718C1474.13 266.718 1468.82 261.207 1468.82 250.185C1468.82 239.162 1474.13 233.651 1484.76 233.651H1600.48C1611.11 233.651 1616.42 239.162 1616.42 250.185C1616.42 261.207 1611.11 266.718 1600.48 266.718H1484.76Z" fill="#0E0E0E"/>
<path fill-rule="evenodd" clip-rule="evenodd" d="M0 147.723L259.473 0L518.925 147.723V443.168L259.473 590.89L0 443.168V147.723ZM259.473 553.96L486.489 424.693V166.178L259.473 36.9307L32.4366 166.178V424.693L259.473 553.96ZM262.399 284.355C254.997 271.107 244.127 260.06 230.921 252.367C217.445 244.546 202.056 240.508 186.42 240.688C173.022 240.534 159.782 243.553 147.812 249.492C136.332 255.14 126.394 263.421 118.831 273.64V179.905C118.893 178.249 118.607 176.598 117.993 175.055C117.378 173.513 116.447 172.111 115.259 170.94C114.071 169.768 112.65 168.85 111.086 168.244C109.521 167.638 107.848 167.356 106.168 167.417C104.518 167.356 102.874 167.639 101.343 168.246C99.8111 168.853 98.4272 169.772 97.2801 170.943C96.137 172.139 95.2469 173.547 94.6607 175.086C94.074 176.624 93.8038 178.262 93.8646 179.905V251.56C93.6117 252.497 93.5038 253.467 93.5451 254.436V329.637C93.3473 345.543 97.4344 361.217 105.389 375.056C113.034 388.487 124.249 399.607 137.825 407.22C151.814 415.07 167.671 419.102 183.764 418.9C199.857 419.103 215.714 415.071 229.703 407.22C243.247 399.594 254.437 388.484 262.079 375.076C270.025 361.233 274.111 345.562 273.923 329.656C274.129 313.826 270.158 298.214 262.399 284.355ZM240.987 363.711C235.429 373.668 227.244 381.957 217.299 387.701H217.339C209.805 392.014 201.481 394.816 192.845 395.943C184.209 397.072 175.432 396.505 167.019 394.275C158.606 392.045 150.723 388.197 143.825 382.952C136.925 377.707 131.147 371.168 126.82 363.711C121.007 353.279 118.04 341.538 118.212 329.637C118.17 326.967 118.283 324.297 118.551 321.64C118.772 321.129 118.881 320.579 118.871 320.025C120.586 304.256 128.155 289.67 140.122 279.076C152.061 268.438 167.678 262.715 183.764 263.083C195.534 262.969 207.118 265.983 217.299 271.808C227.249 277.441 235.443 285.657 240.987 295.562C246.619 306.061 249.563 317.759 249.563 329.637C249.563 341.514 246.619 353.212 240.987 363.711ZM425.427 406.098C425.427 413.57 421.645 417.305 414.082 417.305H293.603C286.04 417.305 282.259 413.57 282.259 406.098C282.025 403.253 282.825 400.419 284.515 398.101L390.953 264.679H292.385C284.808 264.679 281.027 260.95 281.04 253.491C281.054 246.033 284.835 242.297 292.385 242.284H412.764C420.327 242.284 424.109 246.019 424.109 253.491C424.25 256.475 423.331 259.414 421.511 261.803L316.073 394.911H414.062C421.638 394.911 425.427 398.64 425.427 406.098Z" fill="url(#paint0_linear_3159_14752)"/>
</g>
<defs>
<linearGradient id="paint0_linear_3159_14752" x1="538.441" y1="291.235" x2="-3.61367" y2="283.796" gradientUnits="userSpaceOnUse">
<stop stop-color="#CE09FF"/>
<stop offset="1" stop-color="#FFA34E"/>
</linearGradient>
<clipPath id="clip0_3159_14752">
<rect width="1619.82" height="591" fill="white"/>
</clipPath>
</defs>
</svg>
